<?xml version="1.0" encoding="iso-8859-1"?>
<svg id="cart" viewBox="0 0 1387 1024" width="100%" height="100%">
<path d="M1387.128 107.072H397.44L380.563-.223H48.059C21.542-.16.063 21.319 0 47.83v.006c0 26.542 21.517 48.059 48.059 48.059h250.356l118.36 753.303h115.678c-30.465 15.537-50.965 46.678-50.965 82.608 0 51.048 41.383 92.43 92.43 92.43s92.43-41.383 92.43-92.43c0-35.93-20.5-67.071-50.442-82.365l-.523-.242h545.53c-30.4 15.527-50.854 46.616-50.854 82.483 0 50.986 41.332 92.319 92.319 92.319s92.319-41.332 92.319-92.319c0-35.866-20.453-66.956-50.332-82.24l-.521-.242h41.912c26.542 0 48.059-21.517 48.059-48.059s-21.517-48.059-48.059-48.059H498.923l-13.747-87.177 901.952-133.113z">
</path>
</svg>